<svg id="Layer_1" data-name="Layer 1" xmlns="http://www.w3.org/2000/svg" viewBox="0 0 3880.7 448.64"><defs><style>.cls-1{fill:#fff;}</style></defs><title>fisherman-white</title><polygon class="cls-1" points="444.9 7.64 368 440.64 533.4 440.64 610.4 7.64 444.9 7.64"/><path class="cls-1" d="M1772.5,690.7c-0.9.4-33.3,16.3-49.5,24.3a3.65,3.65,0,0,1-5-4.7l84.9-201h182.8l22.6-127H1663.2l-77,433,146.2-.1c65.4-52.5,51.1-123.5,50.5-124.5h-10.4Z" transform="translate(-158.5 -374.66)"/><path class="cls-1" d="M1798.4,815.3h132.9l22.3-124.6H1832.9C1840.4,766.1,1798.4,815.3,1798.4,815.3Z" transform="translate(-158.5 -374.66)"/><polygon class="cls-1" points="1669.1 279.44 1792.4 279.34 1812.2 168.14 1652.1 168.14 1669.1 279.44"/><polygon class="cls-1" points="3734 7.64 3692.5 254.94 3633.9 7.64 3437.1 7.64 3360.2 440.64 3504.6 440.64 3548.1 187.94 3610.8 441.94 3803.7 440.64 3880.7 7.64 3734 7.64"/><polygon class="cls-1" points="212.9 173.44 219.9 134.44 401.2 134.44 423.7 7.64 77 7.64 0 440.64 165.5 440.64 190.9 297.64 363.1 297.64 385.2 173.44 212.9 173.44"/><path class="cls-1" d="M1452,382.3l-1.6,8.8c10.2,65.6,38.7,248.2,43.4,278.5,5.6,36.3,6.8,98.13,48.5,135.5l75.2-422.9H1452v0.1Z" transform="translate(-158.5 -374.66)"/><path class="cls-1" d="M1424.5,530.2l-0.1-.2h-89.9l26.3-147.7h-164l-77,433h164l27.5-154.8h91.3l-27.5,154.8h112.6c-12.47-13.62-24-31.9-29.4-62.3C1452.6,724.9,1424.5,530.2,1424.5,530.2Z" transform="translate(-158.5 -374.66)"/><path class="cls-1" d="M3237.7,382.5L3026.3,779.8l-8.9-397.3-189.2-.2-94.5,263.1-3-263.1H2539.9L2392,779.9s-20.4-84.3-26.7-104.3-17.1-38.3-42.9-51.4c0,0,63.4-14.3,89.7-70.9s20-85.7,9.1-112-36-47.15-74.3-55.1c-19.3-4-47.38-4-47.38-4H2047.1l-76,433h162.1l25.7-137.9s28-1.1,37.7,8.6c13.7,13.7,28.6,129.4,28.6,129.4h299L2607.1,580l4.1,235.3h183.9l91.1-247.2-5.1,248.3,292-1.5,29.5-67.6h128.8l5.1,68.4h166.8l-77.8-433.2H3237.7Zm-982,162.1c-6.5,9.74-14.3,16.8-28.6,18-4,.34-10.09.52-16.67,0.6l-36.83-.2,14.3-72h44.2c12.4,0,24.12,8.68,27.9,18.7C2263.31,519.81,2261.56,535.82,2255.7,544.6Zm997.3,87L3312.5,495l10.2,136.6H3253Z" transform="translate(-158.5 -374.66)"/><path class="cls-1" d="M974.9,498.2c58-9.1,141.7,2.5,141.7,2.5l29.8-113.6s-68-13.3-150-12.4-139.3,23.2-181.5,62.2-57.2,117.7-29.8,163.3,79.6,47.2,112.7,51.4,48.9,6.6,48.9,22.4-18.2,21.6-52.2,24.9S771,694.8,771,694.8L737.8,810c33.2,7.5,113.6,13.3,160,13.3s146.7-9.9,188.2-82.1,31.2-127.4,5.8-156.7c-33.2-38.1-104.8-40.8-129.6-43.3S916.9,507.3,974.9,498.2Z" transform="translate(-158.5 -374.66)"/></svg>